<?xml version="1.0" standalone="no"?>
<!DOCTYPE svg PUBLIC "-//W3C//DTD SVG 20010904//EN"
 "http://www.w3.org/TR/2001/REC-SVG-20010904/DTD/svg10.dtd">
<svg version="1.0" xmlns="http://www.w3.org/2000/svg"
 width="364.000000pt" height="364.000000pt" viewBox="0 0 364.000000 364.000000"
 preserveAspectRatio="xMidYMid meet">
<metadata>
Created by potrace 1.14, written by Peter Selinger 2001-2017
</metadata>
<g transform="translate(0.000000,364.000000) scale(0.100000,-0.100000)"
fill="#000000" stroke="none">
<path d="M0 1818 l1 -1823 24 29 c22 27 22 31 7 43 -11 8 -12 12 -4 13 17 0
15 30 -3 30 -24 0 -17 19 15 38 16 10 43 36 60 58 18 21 38 43 47 47 21 13 67
-9 86 -42 16 -27 16 -30 -18 -97 -19 -38 -35 -77 -35 -86 0 -20 -20 -25 -20
-5 0 6 -12 20 -25 30 -22 16 -26 16 -31 3 -3 -8 -4 -23 -2 -33 3 -16 17 -18
130 -21 l128 -3 -6 48 c-4 26 -17 72 -30 101 -13 29 -26 69 -29 90 -11 62 -15
70 -26 49 -6 -9 -7 -22 -4 -27 12 -19 -28 -10 -74 17 -44 26 -45 27 -21 35 38
12 94 127 86 173 -6 31 -10 35 -38 35 -30 0 -30 0 -14 -25 16 -24 16 -27 -15
-65 -22 -27 -36 -37 -43 -30 -5 5 -18 57 -27 116 -18 107 -16 138 14 162 12
10 13 20 6 45 -16 57 -11 84 22 111 17 14 41 26 55 26 23 0 24 4 26 63 1 34 2
76 2 94 -1 31 26 57 34 33 2 -5 14 4 26 22 14 22 34 36 58 42 25 6 38 16 42
31 15 61 81 100 140 83 17 -4 32 -4 35 0 4 4 22 20 41 36 31 26 32 28 10 22
-23 -6 -23 -6 -7 7 9 8 17 28 17 44 0 17 9 42 20 56 11 14 23 39 26 56 6 31
18 37 48 25 21 -8 21 -56 0 -96 l-16 -31 49 7 c56 8 77 29 69 69 -6 27 -4 28
31 25 20 -2 38 -8 40 -13 2 -6 -11 -25 -27 -44 -17 -18 -30 -34 -28 -35 2 -1
22 -10 46 -21 41 -17 114 -86 124 -116 4 -12 9 -12 34 0 16 8 38 16 49 18 31
6 61 29 92 72 30 44 44 49 63 26 7 -8 10 -15 7 -15 -3 0 0 -12 8 -26 19 -37 8
-93 -25 -129 -16 -16 -44 -57 -63 -90 -20 -33 -51 -75 -70 -92 -19 -18 -38
-44 -41 -59 -6 -23 -81 -103 -97 -104 -4 0 -10 10 -13 23 -5 18 -8 19 -15 7
-22 -37 -51 -186 -61 -315 -11 -152 -6 -371 9 -368 7 2 41 -65 41 -81 0 -2
-29 -6 -64 -10 -60 -6 -184 -42 -223 -65 -13 -7 102 -10 393 -11 l411 0 14 48
c28 104 77 189 94 162 13 -20 34 -9 45 24 6 19 18 40 27 48 15 12 16 9 10 -29
-4 -23 -10 -50 -13 -60 -3 -10 2 -6 10 9 14 24 21 26 73 25 39 0 66 -6 82 -19
13 -10 30 -18 37 -18 7 0 21 -16 30 -35 19 -42 68 -85 94 -85 11 0 29 -14 42
-30 12 -17 25 -30 29 -30 3 0 17 24 29 53 12 28 29 56 36 60 8 5 12 13 8 18
-3 6 4 54 17 107 l22 96 -21 14 c-12 8 -22 25 -22 38 l0 24 -21 -21 c-15 -15
-18 -24 -10 -28 14 -9 9 -50 -9 -61 -7 -4 -10 -12 -6 -18 9 -14 -4 -44 -18
-39 -6 2 -11 10 -11 18 0 7 -9 15 -20 17 -11 2 -27 10 -35 17 -8 6 -23 15 -32
18 -10 4 -18 14 -18 22 0 9 -5 13 -11 10 -5 -4 -18 0 -28 9 -14 13 -24 14 -43
7 -15 -5 -30 -6 -39 0 -8 5 -35 9 -60 9 -31 0 -52 6 -67 20 -12 11 -33 20 -47
20 -14 0 -24 4 -21 8 2 4 -9 14 -24 21 -16 7 -28 18 -27 24 1 7 -6 11 -16 9
-9 -2 -20 5 -24 15 -9 24 -24 34 -45 27 -13 -4 -16 -1 -12 10 4 11 0 13 -14 9
-10 -2 -26 3 -35 11 -8 9 -22 16 -30 16 -26 0 -27 39 -2 75 12 19 25 32 28 29
2 -3 29 4 58 16 30 11 55 20 55 20 1 0 -1 -12 -4 -26 -3 -17 3 -36 17 -55 16
-22 18 -29 7 -29 -7 0 -16 -7 -20 -15 -6 -17 9 -21 19 -5 9 14 45 -7 45 -25 0
-8 8 -15 18 -15 10 0 23 -5 30 -12 14 -14 17 -6 32 82 17 98 54 139 80 90 16
-29 30 -24 30 11 0 37 16 69 35 69 17 0 57 49 49 61 -3 5 3 9 14 9 10 0 22 3
25 7 10 9 107 43 107 37 0 -3 7 2 16 10 8 9 24 16 35 16 11 0 27 4 37 9 43 23
110 51 123 51 8 0 34 14 59 31 37 25 51 29 81 24 29 -5 42 -2 57 13 13 13 28
18 45 15 14 -3 36 3 53 14 15 10 31 16 34 15 3 -2 16 25 30 60 14 34 34 79 44
97 11 22 18 53 17 82 0 26 6 63 14 83 8 19 12 42 9 50 -3 9 -1 16 5 16 6 0 11
-4 11 -10 0 -5 6 -10 14 -10 29 0 34 -104 12 -258 -8 -55 -9 -92 -3 -92 17 0
66 40 72 60 8 25 25 26 25 2 0 -10 13 -43 30 -73 16 -30 43 -96 60 -147 16
-52 37 -100 45 -108 8 -9 13 -20 9 -25 -3 -5 -45 -36 -92 -68 -151 -102 -293
-221 -422 -355 -69 -71 -167 -172 -219 -224 -52 -52 -86 -92 -77 -89 22 9 20
-9 -4 -40 -11 -14 -20 -30 -20 -34 0 -5 343 -9 770 -9 l770 0 0 1820 0 1820
-1820 0 -1820 0 0 -1822z m1931 1044 c8 3 26 -1 40 -8 23 -12 29 -11 39 2 11
13 15 13 31 -2 11 -10 19 -13 19 -8 0 5 17 -8 38 -29 52 -53 103 -93 128 -101
11 -3 26 -22 33 -41 7 -19 21 -40 32 -46 16 -8 18 -13 8 -25 -7 -8 -7 -14 -1
-14 5 0 15 -13 21 -30 5 -16 15 -30 20 -30 6 0 11 -8 11 -18 0 -11 9 -27 19
-36 11 -10 27 -34 37 -54 9 -21 25 -49 36 -65 29 -41 39 -86 28 -127 -11 -41
1 -135 23 -179 17 -33 13 -90 -8 -131 -9 -17 -14 -34 -11 -39 3 -4 -10 -14
-29 -21 -18 -7 -38 -24 -44 -37 -30 -64 -35 -81 -32 -110 1 -17 28 -17 34 0 4
9 7 9 18 -1 17 -16 17 -175 0 -196 -9 -11 -9 -15 1 -18 10 -4 9 -10 -4 -29
-13 -21 -14 -29 -3 -49 11 -20 11 -29 -1 -52 -8 -16 -18 -28 -23 -28 -5 0 -14
-13 -20 -30 -10 -30 -25 -38 -36 -20 -9 14 -21 12 -39 -6 -9 -8 -20 -12 -26
-9 -5 3 -10 -2 -10 -12 0 -27 -44 -45 -63 -26 -13 13 -18 13 -45 -1 -17 -9
-38 -16 -47 -16 -8 0 -15 -4 -15 -9 0 -5 -18 -8 -40 -6 -30 3 -40 1 -40 -10 0
-17 -16 -20 -25 -5 -8 14 -45 13 -45 -1 0 -6 -6 -9 -14 -6 -8 3 -27 2 -43 -3
-98 -31 -147 -38 -273 -38 -74 0 -143 -4 -153 -8 -13 -4 -32 3 -60 22 -36 26
-44 39 -63 104 -12 41 -47 125 -77 185 -84 168 -101 224 -100 330 0 67 6 105
23 150 25 68 34 160 21 218 -20 89 6 127 89 127 41 0 100 -27 100 -47 0 -6 20
-22 45 -36 37 -21 46 -23 56 -11 16 20 5 54 -35 100 -27 32 -48 45 -94 58 -36
10 -72 14 -92 10 -31 -7 -33 -6 -27 17 3 13 11 47 17 75 25 117 91 236 152
274 34 21 72 22 171 5 26 -5 37 -4 37 5 0 7 -7 10 -16 6 -18 -7 -11 8 19 41
14 16 27 21 44 17 12 -4 23 -2 23 2 0 5 13 15 29 22 16 7 39 22 51 32 13 11
34 20 47 20 18 0 27 8 35 32 l11 31 27 -33 c15 -19 33 -31 41 -28z m-476 -660
c-3 -3 -11 0 -18 7 -9 10 -8 11 6 5 10 -3 15 -9 12 -12z m-905 -11 c0 -5 -7
-14 -15 -21 -12 -10 -15 -10 -15 2 0 8 3 18 7 21 9 10 23 9 23 -2z m2329 -15
c32 -17 59 -46 43 -46 -6 0 -14 5 -17 10 -8 13 -61 13 -85 0 -30 -16 -67 -89
-79 -155 -6 -33 -16 -61 -21 -63 -12 -4 6 -42 20 -42 5 0 12 9 15 20 4 12 16
29 27 39 l20 19 -25 17 -26 17 30 49 c17 27 36 52 42 56 7 4 38 8 70 8 l58 1
16 -56 c13 -45 14 -69 6 -137 -8 -69 -17 -93 -52 -152 -48 -78 -135 -167 -176
-177 -31 -8 -115 2 -128 15 -5 5 -4 24 1 45 6 21 7 36 1 36 -14 0 -11 45 10
171 11 63 22 135 26 161 7 54 36 94 105 144 50 37 77 41 119 20z m-2649 -156
c0 -11 -4 -20 -9 -20 -6 0 -9 9 -8 20 1 11 5 20 9 20 4 0 8 -9 8 -20z m-150
-250 c0 -5 -4 -10 -10 -10 -5 0 -10 5 -10 10 0 6 5 10 10 10 6 0 10 -4 10 -10z
m144 -27 c-10 -48 -13 -53 -31 -53 -13 0 -14 3 -5 12 7 7 12 22 12 33 0 23 8
35 22 35 5 0 6 -12 2 -27z m2220 2 c-4 -8 -10 -15 -15 -15 -5 0 -9 7 -9 15 0
8 7 15 15 15 9 0 12 -6 9 -15z m-2028 -37 c-1 -7 -7 -21 -13 -32 -13 -23 -27
-5 -18 24 7 22 35 28 31 8z m-216 -192 c0 -17 -18 -25 -44 -18 -17 5 -16 6 5
18 31 17 39 17 39 0z m830 4 c0 -5 -9 -14 -20 -20 -15 -8 -20 -8 -20 3 0 8 3
17 7 20 10 10 33 8 33 -3z m-913 -16 c-3 -3 -12 -4 -19 -1 -8 3 -5 6 6 6 11 1
17 -2 13 -5z m701 -22 c3 -23 -5 -27 -32 -16 -12 5 -13 10 -5 26 13 24 33 19
37 -10z m177 -29 c-8 -33 -55 -84 -55 -60 0 21 39 87 52 87 6 0 7 -11 3 -27z
m-430 7 c3 -5 2 -17 -3 -26 -6 -11 -5 -26 4 -42 15 -30 3 -62 -25 -62 -27 0
-31 30 -13 89 16 50 25 61 37 41z m-106 -82 c11 -55 11 -70 0 -94 -8 -16 -23
-30 -33 -32 -17 -4 -18 1 -11 62 4 46 3 71 -5 81 -8 10 -9 19 0 35 18 34 34
18 49 -52z m-184 20 c15 -22 14 -24 -15 -48 -17 -14 -35 -42 -41 -63 -7 -27
-15 -37 -27 -35 -19 4 -30 36 -31 99 -1 38 3 48 22 57 38 18 74 14 92 -10z
m-205 -97 c0 -16 -6 -31 -15 -35 -11 -4 -15 2 -15 23 0 15 3 31 7 34 14 15 23
6 23 -22z m91 -168 c0 -16 2 -44 5 -63 5 -37 -12 -90 -28 -90 -6 0 -23 -11
-40 -25 -33 -28 -37 -29 -57 -16 -12 8 -7 22 27 78 23 38 42 77 42 87 0 51 49
79 51 29z m1214 -166 l34 -23 -42 -42 c-24 -23 -50 -42 -60 -42 -12 0 -17 -8
-17 -30 0 -34 -22 -40 -51 -14 -15 14 -16 21 -4 72 7 31 18 58 24 60 6 2 21
12 33 22 30 25 42 25 83 -3z m-188 -33 c7 -20 -12 -63 -33 -71 -8 -3 -23 2
-32 10 -15 15 -14 19 13 47 32 34 43 37 52 14z m170 -160 c3 -56 -12 -94 -38
-94 -32 0 -50 -11 -40 -24 13 -15 -17 -146 -33 -146 -6 0 -4 -4 4 -10 8 -5 12
-11 9 -14 -11 -11 -129 -34 -129 -25 0 5 7 9 15 9 9 0 30 7 47 16 l30 16 -21
19 c-12 11 -21 26 -21 33 0 13 -38 53 -43 45 -1 -2 -19 -29 -40 -60 -20 -30
-37 -63 -37 -72 0 -9 -7 -17 -15 -17 -9 0 -38 -11 -65 -25 -27 -14 -52 -25
-55 -25 -7 0 -4 110 5 145 4 17 8 22 9 13 1 -21 15 -30 34 -22 16 6 50 74 47
95 -4 28 1 40 29 70 35 36 46 33 55 -16 4 -19 11 -35 15 -35 5 0 22 -3 39 -6
28 -6 32 -3 50 37 24 54 57 90 77 83 23 -9 38 5 23 23 -10 12 -9 18 7 29 30
22 40 12 42 -42z m-377 -8 c0 -3 -4 -8 -10 -11 -5 -3 -10 -1 -10 4 0 6 5 11
10 11 6 0 10 -2 10 -4z m546 -346 c85 -14 86 -27 3 -26 -62 2 -73 5 -80 21
-12 31 -10 39 5 26 8 -6 40 -16 72 -21z m239 -70 c3 -5 -3 -10 -14 -10 -11 0
-23 5 -26 10 -3 6 3 10 14 10 11 0 23 -4 26 -10z m86 -27 c36 -7 105 -71 85
-79 -31 -12 -61 0 -60 24 1 23 -15 32 -17 10 0 -10 -2 -10 -6 0 -2 6 -10 12
-17 12 -7 0 -23 12 -37 26 l-24 27 25 -7 c14 -5 37 -10 51 -13z"/>
<path d="M1635 2759 c-4 -6 -5 -13 -2 -16 7 -7 27 6 27 18 0 12 -17 12 -25 -2z"/>
<path d="M1740 2366 c-27 -10 -35 -18 -35 -37 0 -18 5 -23 20 -22 30 4 76 -8
70 -17 -3 -5 -1 -11 4 -15 6 -3 8 -12 4 -20 -8 -22 15 -18 45 6 25 21 26 22 5
16 -13 -3 -25 -1 -28 3 -8 13 33 36 85 50 63 17 67 21 30 36 -40 17 -153 17
-200 0z"/>
<path d="M2178 2328 c5 -22 89 -108 104 -108 22 0 2 44 -38 84 -50 51 -76 60
-66 24z"/>
<path d="M1260 2202 c-17 -14 -22 -29 -23 -68 0 -27 6 -60 13 -74 12 -22 14
-22 25 -6 7 9 29 22 49 27 25 7 38 17 42 34 4 17 13 25 28 26 43 1 -16 18 -66
18 -54 1 -64 19 -26 45 22 16 22 16 1 16 -11 0 -31 -8 -43 -18z"/>
<path d="M1812 2210 c1 -3 -2 -13 -6 -22 -11 -25 1 -51 19 -44 9 3 18 -1 21
-9 4 -9 19 -15 40 -15 29 0 34 4 42 33 7 24 13 31 28 29 10 -2 23 -10 27 -18
9 -16 137 -18 137 -3 0 5 -6 9 -12 9 -7 1 -49 8 -93 16 -101 19 -204 32 -203
24z"/>
<path d="M2327 2183 c-12 -11 -7 -33 7 -33 7 0 16 9 19 20 5 19 -12 28 -26 13z"/>
<path d="M1490 1854 c-8 -4 -23 -14 -33 -22 -10 -9 -32 -16 -50 -16 -40 -1
-47 -30 -17 -69 19 -23 24 -25 48 -15 31 14 62 38 62 49 0 4 -8 9 -17 12 -14
3 -12 6 10 15 38 16 144 16 149 0 6 -16 68 9 68 28 0 11 -5 11 -24 3 -17 -8
-29 -8 -44 0 -25 13 -130 23 -152 15z"/>
<path d="M1383 1633 c-43 -8 -49 -30 -23 -81 24 -46 26 -53 29 -79 1 -18 27
-16 59 4 35 22 44 35 32 47 -7 7 -14 6 -22 -2 -22 -22 -38 -13 -38 21 0 30 4
35 38 46 40 12 158 17 207 9 17 -3 46 -11 65 -18 19 -7 41 -15 48 -16 8 -2 11
-11 8 -22 -5 -15 0 -18 39 -17 52 0 86 24 62 43 -8 7 -34 15 -58 18 -24 3 -91
15 -149 26 -58 11 -113 20 -122 19 -10 0 -28 -1 -40 -1 -13 -1 -43 0 -68 2
-25 3 -55 3 -67 1z"/>
<path d="M2923 1868 c-9 -33 -24 -55 -50 -77 -43 -36 -38 -53 7 -21 39 28 62
73 58 113 -3 31 -4 30 -15 -15z"/>
<path d="M2721 1840 c-5 -14 -19 -38 -30 -55 -25 -36 -26 -45 -7 -45 17 0 66
60 66 81 0 8 -4 21 -10 29 -7 12 -11 10 -19 -10z"/>
<path d="M1060 1140 c0 -5 -13 -10 -29 -10 -27 0 -29 -3 -29 -37 0 -52 -12
-85 -28 -79 -8 3 -14 -1 -14 -11 0 -13 -2 -14 -17 -2 -14 12 -16 12 -11 -1 16
-39 34 -70 40 -70 18 0 58 64 58 95 0 19 5 46 10 60 8 22 13 25 24 15 20 -15
41 21 24 38 -15 15 -28 15 -28 2z"/>
<path d="M265 1020 c-3 -5 -2 -10 4 -10 5 0 13 5 16 10 3 6 2 10 -4 10 -5 0
-13 -4 -16 -10z"/>
<path d="M1440 649 c0 -5 5 -7 10 -4 6 3 10 8 10 11 0 2 -4 4 -10 4 -5 0 -10
-5 -10 -11z"/>
<path d="M1445 600 c-3 -5 1 -10 10 -10 9 0 13 5 10 10 -3 6 -8 10 -10 10 -2
0 -7 -4 -10 -10z"/>
<path d="M1480 560 c0 -5 5 -10 10 -10 6 0 10 5 10 10 0 6 -4 10 -10 10 -5 0
-10 -4 -10 -10z"/>
<path d="M1722 557 c-12 -7 -29 -23 -38 -36 -10 -14 -22 -20 -33 -17 -11 4
-10 1 4 -9 11 -8 25 -19 32 -25 6 -5 25 -7 41 -4 28 6 29 4 24 -21 -5 -26 -4
-27 19 -14 13 7 29 19 36 28 15 21 -5 33 -55 33 -21 0 -30 3 -22 6 8 2 23 13
33 24 15 15 16 22 7 33 -15 18 -18 18 -48 2z"/>
<path d="M1640 460 c0 -5 12 -10 26 -10 14 0 23 4 19 10 -3 6 -15 10 -26 10
-10 0 -19 -4 -19 -10z"/>
<path d="M1700 440 c0 -5 7 -10 16 -10 8 0 12 5 9 10 -3 6 -10 10 -16 10 -5 0
-9 -4 -9 -10z"/>
</g>
</svg>
